<?xml version="1.0" encoding="UTF-8" standalone="no"?>
<svg viewBox="0 0 372 132" width="113px" height="40px" version="1.1" xmlns="http://www.w3.org/2000/svg" xmlns:xlink="http://www.w3.org/1999/xlink">
    <title>logo2</title>
    <defs>
        <linearGradient x1="50%" y1="0%" x2="50%" y2="100%" id="linearGradient-1">
            <stop stop-color="#FFDD75" offset="0%"></stop>
            <stop stop-color="#E1B65A" offset="100%"></stop>
        </linearGradient>
    </defs>
        <g id="logo2">
            <g id="Splash">
                <g id="gq--x">
                    <g id="Group">
                        <path d="M230.508181,120.439357 C229.712151,117.901492 228.49639,115.847252 227.806503,115.874377 C227.116609,115.90151 223.452011,117.214317 219.662954,118.791734 C205.992579,124.482817 186.92615,126.141793 178.887115,122.339646 C168.877605,117.605544 163.659577,107.024466 164.939819,94.0574422 C165.734948,86.004032 165.700529,85.88081 161.526504,81.8350316 C157.171434,77.61378 145.647019,71.1390389 145.647019,72.9134933 C145.647019,73.4651287 146.493698,74.5779363 147.528534,75.3863953 C150.321805,77.5686345 149.94258,86.9478015 146.869212,91.693066 C143.801967,96.428873 140.486512,97.7712399 121.601182,101.923658 C113.550137,103.693884 105.705503,106.018885 104.16865,107.090328 C102.631803,108.161771 96.4643294,113.604957 90.4631493,119.186313 C83.207277,125.93458 78.2706922,129.575428 75.7274624,130.054245 C69.5471621,131.217813 63.3161284,129.68856 59.6799287,126.115791 C56.7506924,123.23766 56.3299602,121.883694 56.4233937,115.635779 C56.4937407,110.931204 57.4043995,106.848717 59.0683527,103.778406 C60.4640707,101.203036 61.6060225,98.5236061 61.6060225,97.8241105 C61.6060225,95.7290376 47.8380003,105.250086 37.7734973,114.305095 C28.0996801,123.008613 21.0167643,127.34037 16.4593496,127.34037 C11.606666,127.34037 5.22463413,123.954245 2.68404569,120.031605 C-2.18543198,112.513155 -0.394195241,102.359248 7.77281576,91.1851417 C11.6589378,85.8681442 11.7174128,85.6057561 9.7241279,82.4293073 C6.40531879,77.1405472 7.35230127,58.3365041 11.3572976,49.9997977 C11.9812751,48.7009464 13.5015609,44.9815141 14.7357096,41.7343928 C17.3615842,34.8255713 20.1939243,29.3755589 20.2049654,31.2103903 C20.2092195,31.9164375 18.5197762,37.7612569 16.4506533,44.1988806 C11.7770305,58.7398278 10.6766655,66.7014104 12.5873652,72.1513158 C14.79322,78.4431005 20.4268994,79.007006 23.0263735,73.196212 C24.293195,70.3643818 24.4662407,70.2984962 24.8807252,72.4901555 C25.4782229,75.6495471 19.2005171,86.1748209 16.2915178,86.8909216 C13.7437467,87.5181007 7.83517889,95.679231 3.96296697,103.919565 C1.68998046,108.756657 1.5711507,109.938447 2.9591023,113.903406 C3.8983531,116.586561 5.90231303,119.122644 7.92694523,120.190394 C11.086693,121.856784 11.7780298,121.768756 17.9616938,118.912763 C24.408295,115.935317 39.3759529,105.092661 49.7837276,95.8607067 C54.5828581,91.6037531 64.121175,86.3740381 71.9543527,83.7048804 C74.7260562,82.7604217 75.4037945,81.7964986 75.4037945,78.7988853 C75.4037945,74.9049016 73.5068021,62.9830028 71.5375285,54.5008347 C70.7771158,51.2255363 70.8497286,48.4345304 71.7525666,46.2354297 L73.1157006,42.9151631 L75.2005096,46.5552287 C81.2152484,57.0569543 82.0409576,58.8999673 81.1014248,59.7263401 C80.5383858,60.2215611 79.8257289,59.962563 79.5177419,59.1507792 C78.9218766,57.5802078 75.373476,57.0654711 75.4478596,58.5603963 C75.4720936,59.0474639 76.2768236,62.893266 77.2361433,67.106625 C79.0834854,75.2202024 82.660755,79.4326533 91.4905751,83.8920791 C94.5990553,85.4619844 95.4732866,86.6778325 95.4732866,89.4310599 C95.4732866,94.1031928 94.2492489,94.6006586 87.9230852,92.4995739 C81.2202348,90.2733815 77.9192685,90.2805479 71.9356442,92.5342933 C68.0281871,94.0060477 66.4574051,95.6659133 63.2757831,101.685279 C58.2544564,111.18521 57.4138132,114.863422 59.1391995,119.784775 C60.7277696,124.31587 64.1310189,125.681785 70.8676752,124.492111 C73.888203,123.958697 77.7409396,121.255193 84.3598247,115.024516 C93.8672693,106.074722 104.086382,98.9052814 111.481815,95.9965109 C113.784359,95.0908739 120.014551,93.5196459 125.326685,92.5048918 C146.174407,88.5224381 149.495858,86.483393 144.992991,80.4317102 C139.710523,73.3322769 114.041874,53.4905554 106.762376,50.879656 C102.033365,49.183525 90.624303,40.7035315 89.9668266,38.396054 C88.8254683,34.3903268 89.1498385,30.1637805 90.8139499,27.3580365 C93.7995638,22.3242092 111.809742,15.0464294 142.511159,6.46758171 C150.891828,4.12578527 166.820508,1.36555911 177.717264,0.366837426 C185.124011,-0.312010759 186.929311,-0.118851737 188.692766,1.54116288 C191.446767,4.13362693 191.359398,7.07867219 188.380383,12.0714564 C184.592294,18.4202513 182.039854,20.8417589 172.6154,27.0277182 C167.786179,30.1974894 162.768137,34.1390306 161.4642,35.7867005 C159.04393,38.8449702 156.936109,39.7014524 156.936109,37.6266169 C156.936109,35.9944999 170.698863,23.4324255 172.486979,23.4324255 C173.299366,23.4324255 176.765102,20.7425599 180.188609,17.4549544 C186.158516,11.722023 186.313565,11.4080354 183.978329,9.77993226 C182.639167,8.84628142 178.963854,8.08238571 175.810962,8.08238571 C170.186513,8.08238571 144.259152,12.7063187 135.612271,15.2514906 C133.19766,15.9622223 129.528708,16.9850836 127.459041,17.5245235 C125.389374,18.0639588 120.599474,19.6139155 116.814834,20.9688691 C113.030184,22.3238227 108.796773,23.4741903 107.407259,23.5252354 C103.983807,23.6510046 93.6727846,29.6691088 93.2728781,31.7748686 C93.08845,32.7459861 95.7301986,34.9807515 99.4629333,37.011303 C112.642847,44.1809806 120.674298,48.0809572 125.074586,49.4480041 C130.351934,51.0875298 150.973385,64.3170158 159.524329,71.5488866 C166.168096,77.1677788 169.657404,77.8391345 171.798204,73.9104315 C173.052699,71.6082438 173.153008,71.8913909 172.549856,76.0321214 C171.871257,80.6907597 172.004858,80.9014694 177.87915,84.4372326 C181.193087,86.4319054 185.137407,88.665227 186.644297,89.4001728 C190.140905,91.1055377 197.73173,91.1206437 201.089706,89.4289178 C203.484733,88.222313 203.622775,87.4249321 202.878237,79.0971616 C202.434498,74.1338303 201.197964,65.0251213 200.130406,58.8555855 C199.062839,52.6860544 197.918422,37.8083255 197.587275,25.7939657 L196.985182,3.94968325 L199.496689,8.08238571 C203.056086,13.9393774 207.341139,24.7890508 206.432693,25.6442106 C206.011748,26.0404703 205.117175,25.4392518 204.444744,24.3081672 C203.77232,23.1770826 202.630328,22.2516507 201.906971,22.2516507 C200.33474,22.2516507 201.160537,30.7978046 204.716788,51.3305141 C207.68923,68.4925633 208.156363,84.2537778 205.855218,89.7427099 C203.062724,96.4036903 198.494719,100.18261 193.235372,100.18261 C188.788789,100.18261 179.907383,96.3890872 173.386992,91.7047493 C169.129328,88.6459814 168.225199,89.0000714 168.225199,93.7262905 C168.225199,107.778862 183.89981,118.223828 201.046066,115.596883 C208.957611,114.38476 223.254964,109.818433 230.29661,106.254754 C233.045954,104.863344 235.963847,103.72493 236.780825,103.72493 C237.597818,103.72493 241.44323,100.991651 245.326201,97.6509842 C253.176458,90.8971099 253.405516,89.5021144 248.303483,79.5190977 C244.917712,72.8942431 243.493114,66.0380827 244.528515,61.3512582 L245.411872,57.3526833 L249.868468,62.532033 C256.527886,70.2714367 256.786218,70.8871513 252.998467,69.9922431 C249.058589,69.0613955 249.061122,69.0138939 252.660284,76.3266818 C255.023701,81.1286864 255.423163,83.4210116 254.810128,88.6637882 C253.854642,96.8353214 251.795789,99.7240966 241.998165,106.64029 C232.17007,113.577986 231.512534,114.630692 233.367316,120.458286 C236.811871,131.280845 248.132506,128.08075 267.861786,110.707469 C272.222984,106.867069 274.301707,105.681051 277.826488,103.72493 C281.351269,101.768809 280.817481,101.768809 285.399647,100.345045 C289.981814,98.9212811 291.20007,97.8164971 297.47234,95.9706809 L308.876435,92.6146517 L308.055169,86.9935849 C306.564796,76.7928692 312.796576,65.9402202 320.144369,65.9402202 C322.395486,65.9402202 324.524681,67.060781 326.31428,69.1873417 C328.720273,72.0463522 328.976499,73.4879878 328.45794,81.248621 C327.881872,89.8700577 327.754493,90.1556029 322.63223,94.3084543 L317.395484,98.5541391 L320.773054,100.253953 C322.630726,101.188852 326.932822,101.914019 330.333281,101.865437 C335.575785,101.790541 337.072291,101.216736 340.174598,98.0919703 C342.342091,95.9087857 343.833251,93.1105807 343.833251,91.2264176 C343.833251,89.4771924 342.191379,77.0945448 340.184645,63.7094271 C336.031713,36.0089212 333.754352,16.8020201 334.382882,14.7782112 C336.265572,8.71600001 336.41943,8.7984352 341.380259,18.5273058 C344.109184,23.8791019 346.329384,29.4303528 346.314044,30.8634157 L346.28616,33.468988 L343.984838,30.6516257 C342.719119,29.1020789 341.35734,28.3311052 340.958651,28.9383492 C340.559967,29.5455981 341.619437,39.0492958 343.313016,50.057679 C347.450931,76.9543078 348.356138,93.4603865 346.027386,99.5526 C343.712774,105.607789 336.192322,109.62879 327.181933,109.62879 C321.580639,109.62879 320.452181,109.150812 315.870143,104.837523 L310.780343,100.046261 L305.0422,101.768809 C301.886231,102.716211 297.328475,103.870941 294.913864,104.334879 C292.499253,104.798818 289.959209,105.579142 289.269321,106.068938 C288.579434,106.558734 285.799431,107.631984 283.091553,108.453943 C279.90077,109.422471 274.382963,113.360995 267.412263,119.645571 C258.733399,127.470186 255.519708,129.605435 250.76999,130.703104 C243.654051,132.347599 243.784025,132.350681 239.095102,130.427017 C234.268963,128.447049 232.302444,126.159739 230.508181,120.439357 L230.508181,120.439357 Z M322.987364,80.4294969 C321.756295,74.6319753 318.534217,71.8459069 315.054532,73.5701669 C310.933785,75.6121195 310.181226,77.2122583 311.031645,82.1237797 C312.786709,92.2599967 313.260852,92.5618381 319.57109,87.5607677 C323.120853,84.7474785 323.663667,83.6143836 322.987364,80.4294969 L322.987364,80.4294969 Z M103.676804,125.414165 L100.304152,122.032838 L103.556283,118.138713 L106.808459,114.244587 L110.420581,117.440726 L114.032704,120.63691 L117.896109,117.218406 C121.995972,113.590673 124.982943,114.141172 128.331877,119.141753 C129.567837,120.987255 129.191469,122.224485 126.672409,124.597099 L123.414487,127.66565 L118.985487,124.695279 L114.556487,121.724863 L110.802972,125.260178 L107.049458,128.795536 L103.676806,125.414167 L103.676804,125.414165 L103.676804,125.414165 Z M366.073949,120.550929 C367.816154,114.686482 366.775101,89.2611651 364.152144,73.6152378 C357.607798,34.578303 355.988292,10.4439307 359.913132,10.4439307 C361.025032,10.4439307 370.231744,28.1480741 370.198281,30.2218618 C370.161892,32.4765759 368.019473,31.9820114 365.986344,29.2495615 C364.984428,27.9030176 363.846676,27.2856454 363.458018,27.8776208 C362.71039,29.0163514 363.059301,31.6662309 368.391821,65.3498329 C373.58838,98.1745265 372.942005,123.798055 366.917432,123.798055 C365.547289,123.798055 365.342964,123.011482 366.073949,120.550929 L366.073949,120.550929 L366.073949,120.550929 Z M233.403603,94.1027554 C234.449338,84.240977 232.664443,67.4248547 227.2107,35.7574155 C225.016326,23.0157373 224.495358,3.18330572 226.355023,3.18330572 C227.74196,3.18330572 235.014069,15.5231781 236.096901,19.7141156 C236.836128,22.5751145 236.783179,22.6023927 234.377936,20.5996921 C229.090165,16.1968901 229.072856,17.2459772 233.973637,45.1007131 C239.05668,73.9912882 239.650369,82.3252424 237.287415,91.6174436 C234.531769,102.453827 232.371469,103.836241 233.403603,94.1027554 L233.403603,94.1027554 L233.403603,94.1027554 Z M270.886393,97.6233428 C271.160579,94.9168953 270.697807,87.8765398 269.858008,81.9781094 C261.476347,23.108184 260.382621,12.637327 262.268553,9.32011963 L263.781755,6.65851489 L265.728123,10.0271866 C270.65882,18.5609914 272.332727,22.3392407 272.295799,24.8513511 C272.257116,27.4829256 272.200506,27.4962061 270.42724,25.2897807 C269.421471,24.0383378 268.234588,23.357073 267.789721,23.7758519 C267.344845,24.1946308 268.164053,32.3917286 269.610188,41.9916215 C272.70463,62.5335742 274.180791,86.4647434 272.933242,95.8641013 C271.916586,103.523906 270.133347,105.056568 270.886393,97.6233428 L270.886393,97.6233428 Z M303.772165,54.2076385 L300.54027,50.9674321 L303.656672,47.2358287 L306.773118,43.5042254 L310.234488,46.5669728 L313.695858,49.6297627 L317.398022,46.3539308 C321.326778,42.8776018 324.189086,43.4051257 327.398251,48.1970068 C328.582629,49.9654861 328.221968,51.15108 325.808042,53.4246729 L322.686091,56.3651568 L318.441936,53.5187549 L314.19778,50.6723106 L310.60092,54.0600778 L307.00406,57.4478873 L303.772165,54.2076398 L303.772165,54.2076385 L303.772165,54.2076385 Z M216.392514,92.7525426 C214.538716,90.9310895 213.040754,88.9385354 213.063713,88.3246463 C213.11026,87.0795691 217.454878,81.8950135 218.451694,81.8950135 C218.802257,81.8950135 220.319233,83.7686853 221.82275,86.0587334 C224.39147,89.9712454 224.433745,90.3986855 222.523302,93.143368 C221.405105,94.7498696 220.326599,96.0642784 220.126629,96.0642784 C219.926662,96.0642784 218.246305,94.5739956 216.392514,92.7525426 L216.392514,92.7525426 L216.392514,92.7525426 Z M26.9794195,21.2721793 C27.4672784,20.5291029 30.9422056,19.0794302 34.7014842,18.0506783 C38.4607579,17.0219264 41.5365304,15.6967003 41.5365304,15.1057308 C41.5365304,13.4073181 35.6862546,12.4668967 28.9250725,13.0784574 C25.5130427,13.3870807 22.7213843,13.3359935 22.7213843,12.9649304 C22.7213843,11.6248777 29.5325824,6.81914779 32.388004,6.14451379 C35.8745212,5.32078121 47.7237462,6.57371415 50.22855,8.03096792 C52.6909113,9.46353256 49.310313,14.1977935 43.0323498,18.1086758 C38.0043995,21.2408592 25.3646119,23.7317403 26.9794195,21.2721793 L26.9794195,21.2721793 L26.9794195,21.2721793 Z" id="text" fill="url(#linearGradient-1)"></path>
                        <path d="M296.580136,37.7772367 C301.935041,34.4036103 308.272954,30.0436678 310.664389,28.0885328 C314.432499,25.0078462 314.797445,24.2608679 313.400528,22.4883741 C311.239861,19.7467743 311.365783,16.7713516 313.707639,15.231248 C316.395126,13.4638222 318.37783,14.777719 318.37783,18.3261484 C318.37783,19.981395 318.970858,21.6261579 319.69568,21.981147 C322.07121,23.1445268 321.205797,25.825225 318.661283,25.1852944 C317.004322,24.768543 315.623262,25.5136092 313.988952,27.7059777 C311.050396,31.6479251 286.675054,46.931657 286.796716,44.7559564 C286.822693,44.2913047 291.225232,41.1508641 296.580136,37.7772367 L296.580136,37.7772367 Z M313.711095,17.7507168 C313.711095,19.0787011 315.341209,20.4715258 316.895409,20.4715258 C317.553148,20.4715258 317.705063,19.6238744 317.23296,18.5879065 C316.325347,16.5962943 313.711095,15.9748983 313.711095,17.7507168 L313.711095,17.7507168 Z M61.2294842,19.1454667 C58.5009508,16.57697 62.0941535,5.76338028 65.6761621,5.76338028 C66.467269,5.76338028 66.2331364,6.64312204 65.1262268,7.82973152 C64.0660687,8.96622702 62.862565,10.958781 62.4517707,12.2576277 C61.548893,15.1123309 63.3395213,18.1856553 65.2560185,17.0706638 C66.1238785,16.565757 66.358936,16.9479213 65.8892314,18.1001607 C65.1189997,19.9896277 62.7021779,20.5317823 61.2294842,19.1454667 L61.2294842,19.1454667 Z M243.288836,38.2096451 C246.607703,35.5989982 250.535818,32.2251005 252.017982,30.712139 C254.353385,28.3281805 254.57957,27.7501388 253.713788,26.3785124 C252.37465,24.2569529 252.452694,21.9544519 253.904132,20.7626582 C255.569784,19.3949535 256.798625,20.4116993 256.798625,23.1576158 C256.798625,24.4385116 257.166172,25.711295 257.615402,25.9859998 C259.087709,26.8862696 258.551344,28.9607009 256.974304,28.465497 C255.94735,28.1429981 255.091396,28.7195601 254.078482,30.4161024 C252.257223,33.4665389 237.149859,45.2937014 237.225262,43.6100572 C237.241362,43.2504912 239.96997,40.8202928 243.288836,38.2096451 L243.288836,38.2096451 Z M253.906272,22.7123238 C253.906272,23.7399711 254.916586,24.8177945 255.879848,24.8177945 C256.287502,24.8177945 256.381656,24.1618482 256.089056,23.3601746 C255.526536,21.8189855 253.906272,21.3381244 253.906272,22.7123238 L253.906272,22.7123238 Z M70.0098868,28.5916417 C68.2152516,26.9022674 69.329032,23.4297077 72.6231028,20.4441224 C77.8745799,15.6844366 105.081842,4.13245058 104.027452,7.11008715 C103.772968,7.82876296 97.429209,11.0029346 89.930216,14.163807 C74.0477689,20.8583474 71.2422347,22.8443123 72.2623642,26.6704264 C72.9528848,29.2603201 71.7815493,30.2593909 70.0098868,28.5916417 L70.0098868,28.5916417 Z M289.910572,26.7933624 C288.59056,23.8942594 284.296698,19.5468911 284.296698,21.1095186 C284.296698,21.544113 283.542548,21.330305 282.620807,20.6344146 C280.382947,18.9447982 280.468823,15.5524149 282.749438,15.5524149 C283.741924,15.5524149 286.210075,17.1972407 288.234209,19.2075833 L291.914465,22.8627832 L293.20842,17.1925256 C294.649571,10.8771855 296.216465,9.27764644 298.355199,11.9385002 C300.068504,14.0700616 299.172397,17.2949788 297.332015,15.620717 C295.142083,13.6284887 294.645697,14.4903878 293.87264,21.6274273 C293.004611,29.6414095 291.87685,31.1118515 289.910572,26.7933624 L289.910572,26.7933624 Z M6.03838203,29.7724119 C4.3637985,28.1960524 5.28473658,23.9587729 8.30528905,19.3422625 C11.5620022,14.3648077 12.666003,14.8712232 9.59235754,19.9326451 C6.93979053,24.3006625 7.23917505,27.01728 10.3731159,27.01728 C12.5973625,27.01728 12.7784713,27.3086926 11.4738717,28.7884376 C9.82633671,30.6571549 7.43761708,31.0895822 6.03838203,29.7724119 L6.03838203,29.7724119 L6.03838203,29.7724119 Z M187.081923,44.3746304 C187.081923,42.4000182 184.538504,40.0057749 182.440853,40.0057749 C181.537723,40.0057749 180.810207,41.3227868 180.810207,42.9577024 C180.810207,45.3192475 181.43738,45.9096348 183.946062,45.9096348 C185.682855,45.9096348 187.081923,45.2247844 187.081923,44.3746304 L187.081923,44.3746304 L187.081923,44.3746304 Z M180.49662,48.144265 C177.417711,46.5014938 177.774344,42.576502 181.504333,37.0538425 C183.258821,34.4561444 184.369005,33.4604169 183.971429,34.8411167 C183.431031,36.7177408 183.912587,37.5149449 185.878942,37.9989997 C187.980773,38.5164001 188.42895,39.4086866 188.109229,42.439273 C187.627964,47.0009989 183.771107,49.8913854 180.49662,48.144265 L180.49662,48.144265 L180.49662,48.144265 Z M156.335861,55.5075675 C155.654027,54.8918343 150.921563,52.3742898 145.819259,49.9130198 C133.935184,44.1803212 124.320144,35.2826849 130.009306,35.2826849 C131.044137,35.2826849 131.89082,35.9616169 131.89082,36.7914263 C131.89082,39.1543403 140.814044,45.3771892 152.460721,51.1363975 C159.380642,54.5582612 160.745478,54.8161838 160.729738,52.6990713 C160.723703,51.8872921 157.195866,49.1367516 152.890095,46.5867646 C143.962543,41.2996296 136.908194,35.481795 136.908194,33.4062285 C136.908194,31.5943586 139.823664,30.555325 144.850432,30.5757207 C150.838562,30.6000141 154.468999,31.8113406 154.468999,33.7850401 C154.468999,35.3196022 154.058892,35.3013345 151.377268,33.6473269 C147.573108,31.3009391 140.671222,31.0954168 140.671222,33.3285197 C140.671222,35.3578559 143.581438,37.8096637 154.126662,44.6645016 C160.691772,48.9320908 162.622229,50.8413063 162.622229,53.0665814 C162.622229,56.1262946 158.705254,57.6472503 156.335861,55.5075675 L156.335861,55.5075675 L156.335861,55.5075675 Z M49.677769,34.0203224 C48.6024988,32.3825382 47.8498227,32.6879252 47.8498227,34.761983 C47.8498227,35.7744463 48.4234823,36.2690808 49.1246284,35.8611654 C49.8257695,35.453255 50.0746827,34.6248752 49.677769,34.0203224 L49.677769,34.0203224 L49.677769,34.0203224 Z M26.9218892,55.7703142 C28.0058756,54.7499021 32.5220942,52.3512723 37.3414123,50.2363484 C42.4617573,47.9893225 47.8498227,43.53446 47.8498227,41.5479736 C47.8498227,40.682141 47.1757106,38.9576144 46.3517921,37.7156942 C45.2011241,35.981249 45.1948863,34.7528841 46.3249019,32.4182401 C48.6518322,27.6107315 51.612851,28.5144918 51.612851,34.0322246 C51.612851,36.5915992 52.1773047,39.0140193 52.867197,39.4153874 C53.5570845,39.8167555 54.1215382,40.9466153 54.1215382,41.9261847 C54.1215382,43.1674761 53.3643459,43.4810026 51.6230067,42.9607386 C49.7717169,42.4076223 48.7714782,42.9435371 47.7618357,45.0294973 C46.9098201,46.7897818 42.902865,49.4733142 37.0690121,52.1906674 C28.0832719,56.3761427 25.1964635,57.3945337 26.9218892,55.7703142 L26.9218892,55.7703142 L26.9218892,55.7703142 Z M293.853856,73.9468135 C293.853856,71.9722013 291.310438,69.577958 289.212788,69.577958 C288.309658,69.577958 287.58214,70.8949698 287.58214,72.5298855 C287.58214,74.8914306 288.209315,75.4818179 290.717996,75.4818179 C292.45479,75.4818179 293.853856,74.7969675 293.853856,73.9468135 L293.853856,73.9468135 L293.853856,73.9468135 Z M287.268555,77.7164481 C284.189646,76.0736769 284.546278,72.1486851 288.276268,66.6260256 C290.030757,64.0283275 291.140939,63.0326 290.743363,64.4132998 C290.202965,66.2899239 290.684522,67.087128 292.650878,67.5711828 C294.752708,68.0885832 295.200885,68.9808697 294.881164,72.0114561 C294.399899,76.573182 290.543041,79.4635685 287.268555,77.7164481 L287.268555,77.7164481 L287.268555,77.7164481 Z M185.372514,65.7689163 C183.997265,63.0263665 182.382913,61.3451131 181.448742,61.6825652 C179.390438,62.4260838 177.047178,60.1894048 177.047178,57.4812017 C177.047178,53.1366768 182.776087,55.8697691 186.204861,61.8500572 L188.235815,65.3923724 L188.28604,62.0676261 C188.33969,58.5164634 190.364902,54.1077337 192.558598,52.7666148 C194.210293,51.756843 197.11667,53.8828124 197.11667,56.1007814 C197.11667,57.4462635 196.663636,57.4730527 194.569711,56.2513932 C191.350251,54.3730648 189.677988,56.4233044 189.521656,62.4404447 C189.328414,69.8783359 187.976846,70.9625709 185.372514,65.7689163 L185.372514,65.7689163 L185.372514,65.7689163 Z M150.437187,125.02916 C151.308944,119.437895 149.636404,113.625424 146.298219,110.645311 C142.86147,107.577192 142.251329,104.94824 144.976014,104.94824 C147.531338,104.94824 151.98832,111.280392 152.817155,116.088375 C153.605418,120.660998 152.369667,128.56368 150.866373,128.56368 C150.327231,128.56368 150.134102,126.973146 150.437187,125.02916 L150.437187,125.02916 L150.437187,125.02916 Z M48.955545,77.2578152 C48.0110755,74.799125 45.9432388,72.3360482 44.1408473,71.5228534 C40.8061838,70.018331 39.3061202,66.468407 41.2369825,64.6507957 C42.8374793,63.1441683 46.7201981,66.7544365 49.6537974,72.4770072 L52.0750317,77.2000924 L52.9770684,70.8789948 C53.4731884,67.4023885 54.4601649,64.0109136 55.1703486,63.3423843 C56.7980522,61.8101504 60.2121547,62.9838147 61.2038356,65.4165167 C62.2654382,68.0207432 60.814332,68.9624265 58.5117395,67.1635298 C55.9265565,65.1438608 55.4559169,65.7866718 54.2464078,72.9892061 C52.8530594,81.28649 51.0590822,82.7338484 48.955545,77.2578152 L48.955545,77.2578152 L48.955545,77.2578152 Z M104.964555,81.5674531 C104.325965,78.0093756 103.393121,76.8068965 100.464102,75.7661633 C96.794992,74.4624599 95.5694801,71.5432026 98.0784988,70.0834949 C99.926771,69.0082006 102.729144,71.5016148 105.215274,76.433454 L107.343327,80.6549572 L109.326081,74.2044395 C111.424157,67.3787517 114.526696,65.647594 117.284796,69.7636353 C118.992181,72.3116386 117.47981,73.8574182 115.099163,71.9975438 C113.065558,70.4087887 112.523176,70.9866638 111.324387,76.0193222 C110.079419,81.2458381 107.892896,86.0558846 106.76203,86.0558846 C106.216478,86.0558846 105.407617,84.0360898 104.964555,81.5674531 L104.964555,81.5674531 L104.964555,81.5674531 Z M25.3128842,101.47846 C23.9998456,99.1689239 25.6715155,92.4840927 28.1361374,90.1885871 C28.9887119,89.3945123 29.0753188,89.7812074 28.4005782,91.369362 C26.5624814,95.6957589 26.9755512,99.6473444 29.2490668,99.4863295 C30.4881722,99.3985766 31.0894887,99.964624 30.7200094,100.871001 C29.6648722,103.459372 26.6327544,103.80001 25.3128842,101.47846 L25.3128842,101.47846 L25.3128842,101.47846 Z M350.975716,68.013671 C349.662677,65.7041352 351.334347,59.019304 353.798969,56.7237983 C354.651543,55.9297235 354.73815,56.3164186 354.063411,57.9045733 C352.225314,62.2309702 352.638383,66.1825556 354.911898,66.0215407 C356.151004,65.9337879 356.752321,66.4998353 356.382841,67.4062127 C355.327704,69.9945836 352.295586,70.3352208 350.975716,68.013671 L350.975716,68.013671 L350.975716,68.013671 Z M299.477777,123.053362 C302.993911,119.521603 304.144234,114.40434 301.422007,114.40434 C300.300915,114.40434 300.279392,114.063014 301.33769,113.066783 C303.30771,111.21231 306.690249,112.679716 306.690249,115.388817 C306.690249,118.140396 302.430062,123.4022 298.753328,125.191788 C296.440683,126.317433 296.550303,125.993839 299.477777,123.053362 L299.477777,123.053362 L299.477777,123.053362 Z M342.80723,125.261874 C341.431982,122.519324 339.817631,120.838071 338.88346,121.175523 C336.825156,121.919042 334.481896,119.682363 334.481896,116.974159 C334.481896,112.629635 340.210804,115.362727 343.639578,121.343015 L345.670532,124.88533 L345.720757,121.560584 C345.774408,118.009421 347.799619,113.600691 349.993316,112.259573 C351.64501,111.249801 354.551387,113.37577 354.551387,115.593739 C354.551387,116.939221 354.098353,116.96601 352.004429,115.744351 C348.784969,113.866023 347.112705,115.916262 346.956374,121.933402 C346.763131,129.371294 345.411563,130.455529 342.80723,125.261874 L342.80723,125.261874 L342.80723,125.261874 Z M213.316697,61.5153338 C216.83283,57.9835753 217.983153,52.8663118 215.260926,52.8663118 C214.139835,52.8663118 214.118311,52.5249854 215.176609,51.528755 C217.14663,49.6742822 220.529168,51.1416873 220.529168,53.850789 C220.529168,56.6023678 216.268981,61.8641714 212.592248,63.6537595 C210.279603,64.7794051 210.389223,64.455811 213.316697,61.5153338 L213.316697,61.5153338 L213.316697,61.5153338 Z" id="sign" fill="#FFFFFF"></path>
                    </g>
                </g>
            </g>
        </g>
</svg>
